<svg width="152" height="60" viewBox="0 0 152 60" fill="none" xmlns="http://www.w3.org/2000/svg">
<rect x="6" y="7" width="44" height="44" rx="3.77143" fill="#1A73E8"/>
<rect x="10.4" y="11.4" width="17.6" height="16.3429" rx="1.25714" fill="white"/>
<rect x="10.4" y="43.4572" width="35.2" height="2.51429" rx="1.25714" fill="white"/>
<rect x="10.4" y="37.8" width="35.2" height="2.51429" rx="1.25714" fill="white"/>
<rect x="10.4" y="31.5143" width="35.2" height="2.51429" rx="1.25714" fill="white"/>
<rect x="29.8857" y="24.6" width="16.3429" height="2.51429" rx="1.25714" fill="white"/>
<rect x="29.8857" y="18.3143" width="16.3429" height="2.51429" rx="1.25714" fill="white"/>
<rect x="29.8857" y="12.0286" width="16.3429" height="2.51429" rx="1.25714" fill="white"/>
<path d="M62.122 22V11.572H65.422L65.532 12.474C65.9573 12.1807 66.4927 11.924 67.138 11.704C67.7833 11.4693 68.4727 11.352 69.206 11.352C70.5553 11.352 71.538 11.6747 72.154 12.32C72.77 12.9653 73.078 13.9627 73.078 15.312V22H69.536V15.598C69.536 15.0113 69.4113 14.5933 69.162 14.344C68.9127 14.0947 68.4653 13.97 67.82 13.97C67.4387 13.97 67.05 14.058 66.654 14.234C66.258 14.41 65.928 14.63 65.664 14.894V22H62.122ZM80.6651 22.22C78.8464 22.22 77.3871 21.7727 76.2871 20.878C75.1871 19.9687 74.6371 18.6047 74.6371 16.786C74.6371 15.1287 75.0917 13.8087 76.0011 12.826C76.9104 11.8433 78.2744 11.352 80.0931 11.352C81.7504 11.352 83.0337 11.7773 83.9431 12.628C84.8524 13.4787 85.3071 14.6227 85.3071 16.06V17.93H77.9151C78.0764 18.6193 78.4504 19.1033 79.0371 19.382C79.6384 19.646 80.4524 19.778 81.4791 19.778C82.0511 19.778 82.6304 19.7267 83.2171 19.624C83.8184 19.5213 84.3171 19.3893 84.7131 19.228V21.538C84.2144 21.7727 83.6204 21.9413 82.9311 22.044C82.2417 22.1613 81.4864 22.22 80.6651 22.22ZM77.9151 15.884H82.2271V15.422C82.2271 14.9087 82.0731 14.5053 81.7651 14.212C81.4571 13.904 80.9364 13.75 80.2031 13.75C79.3524 13.75 78.7584 13.926 78.4211 14.278C78.0837 14.6153 77.9151 15.1507 77.9151 15.884ZM88.43 22L85.68 11.572H89.156L90.564 17.556L92.038 13.002V11.572H94.7L96.416 17.556L97.78 11.572H101.256L98.506 22H95.294L93.512 16.588L91.686 22H88.43ZM105.933 22.22C105.097 22.22 104.305 22.1613 103.557 22.044C102.809 21.9267 102.215 21.78 101.775 21.604V18.898C102.289 19.118 102.883 19.2867 103.557 19.404C104.232 19.5213 104.833 19.58 105.361 19.58C105.992 19.58 106.447 19.5507 106.725 19.492C107.019 19.4333 107.165 19.272 107.165 19.008C107.165 18.7147 106.931 18.4947 106.461 18.348C105.992 18.2013 105.347 17.9887 104.525 17.71C103.572 17.3727 102.846 16.984 102.347 16.544C101.863 16.0893 101.621 15.422 101.621 14.542C101.621 13.5153 102.003 12.7307 102.765 12.188C103.543 11.6307 104.775 11.352 106.461 11.352C107.121 11.352 107.774 11.4033 108.419 11.506C109.065 11.6087 109.593 11.726 110.003 11.858V14.52C109.593 14.3293 109.123 14.19 108.595 14.102C108.067 14.014 107.591 13.97 107.165 13.97C106.623 13.97 106.161 14.0067 105.779 14.08C105.413 14.1387 105.229 14.2927 105.229 14.542C105.229 14.8207 105.435 15.0187 105.845 15.136C106.256 15.2387 106.85 15.4147 107.627 15.664C108.449 15.9133 109.087 16.1847 109.541 16.478C109.996 16.7567 110.319 17.094 110.509 17.49C110.7 17.886 110.795 18.3847 110.795 18.986C110.795 20.0273 110.385 20.8267 109.563 21.384C108.742 21.9413 107.532 22.22 105.933 22.22ZM65.378 46.22C64.718 46.22 64.102 46.1027 63.53 45.868C62.9727 45.6333 62.5253 45.274 62.188 44.79C61.8507 44.2913 61.682 43.6753 61.682 42.942C61.682 41.8713 62.0413 41.0353 62.76 40.434C63.4933 39.818 64.586 39.51 66.038 39.51H68.942V39.268C68.942 38.74 68.766 38.366 68.414 38.146C68.062 37.9113 67.402 37.794 66.434 37.794C65.246 37.794 64.08 37.9773 62.936 38.344V36.056C63.4493 35.8507 64.0727 35.682 64.806 35.55C65.554 35.418 66.3387 35.352 67.16 35.352C68.7733 35.352 70.0347 35.682 70.944 36.342C71.868 37.002 72.33 38.0507 72.33 39.488V46H69.228L69.052 45.12C68.6707 45.472 68.1793 45.7433 67.578 45.934C66.9913 46.1247 66.258 46.22 65.378 46.22ZM66.5 44.042C67.0573 44.042 67.5413 43.9467 67.952 43.756C68.3627 43.5653 68.6927 43.3233 68.942 43.03V41.556H66.434C65.3927 41.556 64.872 41.974 64.872 42.81C64.872 43.1913 65.004 43.492 65.268 43.712C65.532 43.932 65.9427 44.042 66.5 44.042ZM74.454 46V35.572H77.754L77.864 36.474C78.2894 36.1807 78.8247 35.924 79.47 35.704C80.1154 35.4693 80.8047 35.352 81.538 35.352C82.8874 35.352 83.87 35.6747 84.486 36.32C85.102 36.9653 85.41 37.9627 85.41 39.312V46H81.868V39.598C81.868 39.0113 81.7434 38.5933 81.494 38.344C81.2447 38.0947 80.7974 37.97 80.152 37.97C79.7707 37.97 79.382 38.058 78.986 38.234C78.59 38.41 78.26 38.63 77.996 38.894V46H74.454ZM90.0814 49.872C89.5534 49.872 89.0988 49.8427 88.7174 49.784C88.3508 49.74 87.9841 49.6447 87.6174 49.498V47.034C87.8668 47.122 88.0941 47.1807 88.2994 47.21C88.5194 47.2393 88.7394 47.254 88.9594 47.254C89.5608 47.254 90.0081 47.144 90.3014 46.924C90.6094 46.7187 90.9174 46.3447 91.2254 45.802L86.5394 35.572H90.2574L93.0074 42.194L95.7134 35.572H99.4094L95.4274 45.142C95.0314 46.0953 94.5914 46.924 94.1074 47.628C93.6234 48.3467 93.0588 48.8967 92.4134 49.278C91.7681 49.674 90.9908 49.872 90.0814 49.872ZM105.062 46.22C103.772 46.22 102.818 45.89 102.202 45.23C101.601 44.57 101.3 43.6607 101.3 42.502V38.256H99.8924V35.572H101.3V33.394L104.842 32.448V35.572H107.372L107.218 38.256H104.842V42.26C104.842 42.7587 104.967 43.1107 105.216 43.316C105.466 43.5067 105.84 43.602 106.338 43.602C106.764 43.602 107.196 43.5287 107.636 43.382V45.78C106.947 46.0733 106.089 46.22 105.062 46.22ZM109.705 33.922V31.26H113.555V33.922H109.705ZM109.991 46V38.19H108.451L108.759 35.572H113.533V46H109.991ZM115.79 46V35.572H119.068L119.178 36.496C119.647 36.1587 120.175 35.8873 120.762 35.682C121.349 35.462 121.979 35.352 122.654 35.352C123.358 35.352 123.908 35.462 124.304 35.682C124.7 35.8873 125.008 36.1807 125.228 36.562C125.712 36.21 126.255 35.924 126.856 35.704C127.472 35.4693 128.191 35.352 129.012 35.352C130.229 35.352 131.124 35.6673 131.696 36.298C132.268 36.9287 132.554 37.8893 132.554 39.18V46H129.056V39.598C129.056 39.026 128.931 38.6153 128.682 38.366C128.447 38.102 128.059 37.97 127.516 37.97C127.179 37.97 126.849 38.0433 126.526 38.19C126.203 38.322 125.932 38.5127 125.712 38.762C125.741 38.9233 125.756 39.0773 125.756 39.224C125.771 39.3707 125.778 39.5467 125.778 39.752V46H122.478V39.554C122.478 39.026 122.383 38.63 122.192 38.366C122.016 38.102 121.671 37.97 121.158 37.97C120.791 37.97 120.447 38.0653 120.124 38.256C119.801 38.4467 119.508 38.6667 119.244 38.916V46H115.79ZM140.155 46.22C138.337 46.22 136.877 45.7727 135.777 44.878C134.677 43.9687 134.127 42.6047 134.127 40.786C134.127 39.1287 134.582 37.8087 135.491 36.826C136.401 35.8433 137.765 35.352 139.583 35.352C141.241 35.352 142.524 35.7773 143.433 36.628C144.343 37.4787 144.797 38.6227 144.797 40.06V41.93H137.405C137.567 42.6193 137.941 43.1033 138.527 43.382C139.129 43.646 139.943 43.778 140.969 43.778C141.541 43.778 142.121 43.7267 142.707 43.624C143.309 43.5213 143.807 43.3893 144.203 43.228V45.538C143.705 45.7727 143.111 45.9413 142.421 46.044C141.732 46.1613 140.977 46.22 140.155 46.22ZM137.405 39.884H141.717V39.422C141.717 38.9087 141.563 38.5053 141.255 38.212C140.947 37.904 140.427 37.75 139.693 37.75C138.843 37.75 138.249 37.926 137.911 38.278C137.574 38.6153 137.405 39.1507 137.405 39.884Z" fill="#1A73E8"/>
<rect x="0.5" y="0.5" width="151" height="58" rx="3.5" stroke="#1A73E8"/>
</svg>
